<?xml version="1.0" encoding="UTF-8"?>
<svg id="Vrstva_1" xmlns="http://www.w3.org/2000/svg" viewBox="0 0 424.5 426">
  <defs>
    <style>
      .cls-1 {
        fill: #fff;
      }
    </style>
  </defs>
  <path class="cls-1" d="M0,0c141.5,0,283,0,424.5,0,0,142,0,284,0,426-141.5,0-283,0-424.5,0C0,284,0,142,0,0ZM213.58,3.07c-26.42-.29-51.94,4.34-75.37,12.77-43.98,15.84-78.69,43.26-104.06,82.74C12.4,132.43,1.33,169.43.57,209.58c-.54,28.46,5.15,55.66,16.8,81.63,13.15,29.34,30.88,55.17,55.32,76.4,39.09,33.97,84.76,51.05,135.87,52.27,30.91.74,60.94-6.77,89.3-19.33,29.42-13.02,55.53-30.91,75.83-56.43,25.76-32.37,43.05-68.27,47.22-110.13,2.93-29.46.56-58.14-8.87-86.17-5.83-17.34-13.93-33.57-23.82-48.97-17.67-27.48-39.8-50.39-68.17-66.69C286.17,12.71,249.64,2.83,213.58,3.07Z"/>
  <path d="M213.58,3.07c36.06-.25,72.59,9.64,106.45,29.09,28.38,16.3,50.51,39.21,68.17,66.69,9.9,15.4,17.99,31.63,23.82,48.97,9.43,28.04,11.8,56.71,8.87,86.17-4.16,41.86-21.45,77.76-47.22,110.13-20.31,25.51-46.41,43.4-75.83,56.43-28.36,12.55-58.38,20.06-89.3,19.33-51.1-1.22-96.78-18.3-135.87-52.27-24.43-21.23-42.16-47.06-55.32-76.4C5.72,265.24.02,238.04.57,209.58c.77-40.15,11.84-77.15,33.58-111C59.52,59.11,94.23,31.68,138.21,15.85c23.43-8.43,48.94-13.06,75.37-12.77ZM398.84,202.54c-1.08-7.77-2.02-20.65-4.78-33.12-6.01-27.09-18.77-50.9-35.6-73-18.42-24.19-41.96-41.43-68.99-53.8-40.85-18.7-83.57-22.02-126.95-10.54-43.84,11.61-79.17,35.91-105.27,73.59-15.49,22.37-25.55,46.93-30.61,73.42-5.94,31.15-3.06,61.99,7.88,91.69,8.82,23.96,21.5,45.67,39.13,64.63,17.28,18.59,37.3,33.09,59.86,43.91,10.29,4.94,21.85,7.28,32.94,10.45,18.65,5.35,37.66,7.64,57.08,6.39,12.72-.81,24.88-4.08,37.11-7.34,24.01-6.41,45.47-18.13,65.44-32.39,13.44-9.59,25.02-21.55,35.11-34.83,25.6-33.69,38.28-71.63,37.65-119.06Z"/>
  <path class="cls-1" d="M398.84,202.54c.62,47.43-12.05,85.37-37.65,119.06-10.09,13.28-21.67,25.24-35.11,34.83-19.98,14.26-41.43,25.99-65.44,32.39-12.23,3.26-24.4,6.53-37.11,7.34-19.43,1.24-38.44-1.05-57.08-6.39-11.08-3.18-22.65-5.52-32.94-10.45-22.56-10.82-42.57-25.33-59.86-43.91-17.63-18.96-30.3-40.67-39.13-64.63-10.93-29.69-13.82-60.54-7.88-91.69,5.05-26.49,15.11-51.05,30.61-73.42,26.1-37.68,61.43-61.98,105.27-73.59,43.38-11.49,86.1-8.16,126.95,10.54,27.03,12.37,50.57,29.61,68.99,53.8,16.82,22.1,29.59,45.91,35.6,73,2.77,12.47,3.7,25.35,4.78,33.12ZM214.36,258.74c34.21.88,56.32-27.61,56.29-56.22-.03-32.54-30.45-57.5-57.69-55.96-31,1.76-55.5,27.1-55.03,55.56.54,32.5,24.61,56.89,56.42,56.62ZM319.41,237.37c4.87-.39,8.97-.99,13.07-1,19.46-.03,32.59-9.97,41.52-26.48,13.52-25.01-3.51-57.55-31.81-59.79-16.21-1.29-32.55-.93-48.94-1.32v108.43h26.17v-19.84ZM69.65,128.81h281.4v-19.9H69.65v19.9ZM355.03,274.68H65.41c-.35,6.76-.69,13.42-1.03,19.88,97.12-.44,193.76-.89,290.65-1.33v-18.55ZM97.93,212.43c-.54.13-1.08.25-1.62.38-9.26-21.45-18.53-42.9-27.72-64.19-6.62,0-13.19,0-19.75,0-.82,0-1.64-.15-2.47-.21-2.95-.2-4.17.69-2.87,3.87,5.01,12.24,9.49,24.72,14.95,36.76,9.9,21.84,20.39,43.42,30.5,65.16.99,2.13,2.15,2.77,4.35,2.7,4.75-.15,9.51-.04,13.77-.04,14.83-35.57,29.8-71.49,44.95-107.84h-29.4c-8.21,21.08-16.45,42.25-24.69,63.42ZM328.55,306.13H91.29v19.47h237.25v-19.47ZM97.43,96.15h226.87v-18.9H99c-.56,6.7-1.04,12.59-1.57,18.9ZM303.24,337.75H119.19c-.43,6.88-.84,13.43-1.21,19.42h186.36c-.34-5.94-.7-12.36-1.1-19.42ZM280.56,46.11c-46.05-2.34-91.75-.58-137.89.36.63,6.33,1.24,12.42,1.85,18.43h136.05v-18.78ZM171.11,385.04c28.14,4.01,55.74-.28,83.35-.91.67-5.07,1.35-10.13,2.12-15.92h-85.47v16.83Z"/>
  <path d="M214.36,258.74c-31.81.27-55.88-24.11-56.42-56.62-.47-28.46,24.02-53.8,55.03-55.56,27.23-1.55,57.66,23.42,57.69,55.96.03,28.61-22.08,57.09-56.29,56.22ZM213.7,233.79c16.28.15,30.55-13.51,30.72-29.42.19-17.61-12.47-30.6-30.16-30.95-17.19-.34-30.04,12.32-30.18,29.73-.14,17.75,12.16,30.48,29.62,30.65Z"/>
  <path d="M319.41,237.37v19.84h-26.17v-108.43c16.4.39,32.73.03,48.94,1.32,28.3,2.25,45.34,34.78,31.81,59.79-8.93,16.51-22.06,26.45-41.52,26.48-4.1,0-8.2.61-13.07,1ZM318.85,210.85c6.74-.42,13.45-.59,20.1-1.3,7.49-.8,13.3-7.83,13.88-16.18.54-7.77-3.55-14.42-11.33-15.92-7.26-1.4-14.82-1.28-22.65-1.86v35.26Z"/>
  <path d="M69.65,128.81v-19.9h281.4v19.9H69.65Z"/>
  <path d="M355.03,274.68v18.55c-96.88.44-193.52.88-290.65,1.33.33-6.45.68-13.11,1.03-19.88h289.62Z"/>
  <path d="M97.93,212.43c8.24-21.17,16.48-42.34,24.69-63.42h29.4c-15.15,36.35-30.12,72.27-44.95,107.84-4.26,0-9.02-.1-13.77.04-2.2.07-3.36-.57-4.35-2.7-10.12-21.74-20.61-43.32-30.5-65.16-5.45-12.04-9.93-24.52-14.95-36.76-1.3-3.17-.08-4.07,2.87-3.87.82.06,1.64.21,2.47.21,6.56.02,13.12,0,19.75,0,9.2,21.3,18.46,42.75,27.72,64.19.54-.13,1.08-.25,1.62-.38Z"/>
  <path d="M328.55,306.13v19.47H91.29v-19.47h237.25Z"/>
  <path d="M97.43,96.15c.52-6.31,1.01-12.2,1.57-18.9h225.31v18.9H97.43Z"/>
  <path d="M303.24,337.75c.4,7.06.76,13.48,1.1,19.42H117.98c.37-5.99.78-12.53,1.21-19.42h184.05Z"/>
  <path d="M280.56,46.11v18.78h-136.05c-.6-6-1.21-12.09-1.85-18.43,46.15-.94,91.85-2.7,137.89-.36Z"/>
  <path d="M171.11,385.04v-16.83h85.47c-.77,5.79-1.44,10.85-2.12,15.92-27.62.62-55.21,4.92-83.35.91Z"/>
  <path class="cls-1" d="M213.7,233.79c-17.46-.16-29.76-12.9-29.62-30.65.14-17.41,12.99-30.07,30.18-29.73,17.69.35,30.34,13.34,30.16,30.95-.17,15.91-14.43,29.57-30.72,29.42Z"/>
  <path class="cls-1" d="M318.85,210.85v-35.26c7.83.58,15.39.45,22.65,1.86,7.78,1.51,11.88,8.15,11.33,15.92-.59,8.35-6.39,15.38-13.88,16.18-6.65.71-13.36.89-20.1,1.3Z"/>
</svg>